<svg xmlns="http://www.w3.org/2000/svg" xml:space="preserve" viewBox="0 0 60 60">
  <path d="M0 0v60h60V0H0zm20 39h-3v8a1 1 0 0 1-2 0v-8H9a1 1 0 0 1-1-1V27a1 1 0 0 1 2 0v10h5v-2a1 1 0 0 1 2 0v2h3a1 1 0 0 1 0 2zm16 2.5c0 3.584-2.916 6.5-6.5 6.5S23 45.084 23 41.5v-9c0-3.584 2.916-6.5 6.5-6.5s6.5 2.916 6.5 6.5v9zM51 39h-3v8a1 1 0 0 1-2 0v-8h-6a1 1 0 0 1-1-1V27a1 1 0 0 1 2 0v10h5v-2a1 1 0 0 1 2 0v2h3a1 1 0 0 1 0 2zM2 12V2h56v10H2z"/>
  <path d="M54.293 3.293 52 5.586l-2.293-2.293-1.414 1.414L50.586 7l-2.293 2.293 1.414 1.414L52 8.414l2.293 2.293 1.414-1.414L53.414 7l2.293-2.293zM3 3h39v8H3zm26.5 25a4.505 4.505 0 0 0-4.5 4.5v9c0 2.481 2.019 4.5 4.5 4.5s4.5-2.019 4.5-4.5v-9c0-2.481-2.019-4.5-4.5-4.5z"/>
</svg>